<?xml version="1.0" encoding="UTF-8" standalone="no"?>
<svg
   version="1.1"
   width="312.43939"
   height="67.562477"
   id="svg164"
   xml:space="preserve"
   xmlns="http://www.w3.org/2000/svg"
   xmlns:svg="http://www.w3.org/2000/svg"><defs
     id="defs164"><style
       id="style1">.a{fill:none;stroke:#000000;stroke-linecap:round;stroke-linejoin:round;}</style><style
       id="style1-0">.a{fill:none;stroke:#000000;stroke-linecap:round;stroke-linejoin:round;}</style></defs><g
     id="text1"
     style="font-size:46.9306px;line-height:1.6;font-family:Spantaran;-inkscape-font-specification:Spantaran;fill:#3737c8;stroke-width:34.5882"
     aria-label="manawp"
     transform="matrix(1.338653,0,0,1.338653,1.8501666,5.5432628)"><path
       style="fill:#4d4d4d"
       d="m 93.401398,18.614475 v 0 0 q 0.68746,-3.185231 -1.145767,-5.568425 -1.833226,-2.40611 -4.972627,-2.40611 h -2.635263 l -0.02291,0.02292 h -2.612348 l -1.054105,4.51432 Q 79.3543,10.63994 74.88581,10.63994 h -5.20178 v 0.02292 H 62.7636 l -5.614257,23.4653 h 7.630806 l 4.056014,-17.026092 h 3.276892 q 0.641629,0 0.985359,0.458307 0.366645,0.458307 0.274984,1.054105 l -3.82686,15.51368 h 7.60789 l 3.849776,-15.51368 q 0.183322,-0.756206 0.206238,-1.512412 h 0.504137 v 0 h 2.79567 q 0.64163,0 0.98536,0.458307 0.366645,0.458307 0.274984,1.054105 l -3.826861,15.51368 h 7.60789 z m 14.482492,15.51368 v 0 0 h 7.49331 l 3.75811,-14.803304 v 0 l 1.87906,-7.424568 h -0.0229 l 0.34373,-1.214513 h -10.70146 q -10.12858,-0.549967 -14.940801,7.470399 -2.818585,6.485038 -0.962443,10.884782 1.856141,4.376828 7.630804,4.995542 z m 1.67282,-6.691277 v 0 0 h -4.1706 q -5.04137,0.06875 -3.82686,-5.453849 0.64163,-2.085295 2.42903,-3.574792 1.7874,-1.512412 4.67473,-1.558242 h 3.5977 l -0.61871,2.474856 h 0.0229 z m 35.10628,-8.822403 v 0 0 q 0.68746,-3.185231 -1.14576,-5.568425 -1.83323,-2.40611 -4.94971,-2.40611 h -5.20178 v 0.02292 h -9.30363 l -5.59134,23.4653 h 7.60789 l 4.05601,-17.026092 h 5.66009 q 0.64163,0 0.98536,0.458307 0.34373,0.458307 0.27498,1.054105 l -3.82686,15.51368 h 7.60789 z m 14.71165,15.51368 v 0 0 h 7.49331 l 3.75812,-14.803304 v 0 l 1.87905,-7.424568 h -0.0229 l 0.34373,-1.214513 h -10.70146 q -10.12858,-0.549967 -14.9408,7.470399 -2.81858,6.485038 -0.96244,10.884782 1.85614,4.376828 7.6308,4.995542 z m 1.67282,-6.691277 v 0 0 h -4.17059 q -5.04138,0.06875 -3.82686,-5.453849 0.64163,-2.085295 2.42902,-3.574792 1.7874,-1.512412 4.67473,-1.558242 h 3.59771 l -0.61872,2.474856 h 0.0229 z"
       id="path1" /><path
       d="m 171.86349,26.153619 v 0 0 q -0.68746,3.185231 1.14577,5.591341 1.83322,2.383195 4.97262,2.383195 h 2.63527 v -0.02292 h 2.61234 l 1.05411,-4.51432 q 1.60407,4.537236 6.04965,4.537236 h 5.20178 v -0.02292 h 6.89751 l 5.56843,-23.465299 h -7.60789 l -4.0331,17.026091 H 193.106 q -0.64163,0 -1.00827,-0.458306 -0.34373,-0.458307 -0.25207,-1.054106 L 195.6496,10.63994 h -7.60789 l -3.80394,15.513679 q -0.18332,0.756206 -0.20624,1.512412 h -0.50414 v 0 h -2.79567 q -0.64163,0 -0.98536,-0.458306 -0.34373,-0.458307 -0.27498,-1.054106 l 3.80394,-15.513679 h -7.60789 z m 30.2024,16.705277 v 0 0 h 7.35583 l 2.15404,-8.661995 h 5.43093 q 6.23297,-0.252069 10.47231,-4.170591 4.26225,-3.941437 4.53723,-10.655629 -0.0458,-3.849776 -3.09357,-6.301716 -3.04774,-2.451941 -8.06619,-2.451941 h -10.6098 l -1.53533,6.141309 h 11.34309 q 2.79567,0.04583 3.78103,1.71865 1.00827,1.672819 0.57288,3.78103 -1.60407,5.476764 -6.50795,5.408018 h -4.60598 l 2.13112,-8.753656 h -7.24124 z"
       id="path2" /></g><rect
     style="fill:#e6e6e6;stroke:#e6e6e6;stroke-width:0.858959"
     id="rect1"
     width="66.703522"
     height="66.703522"
     x="0.42947388"
     y="0.42948151"
     ry="33.351761" /><g
     fill="none"
     stroke="currentColor"
     stroke-linecap="round"
     stroke-linejoin="round"
     stroke-width="1.5"
     id="g4"
     transform="matrix(2.1978298,0,0,2.1978298,0.28417657,8.2251228)"
     style="stroke:#666666"><path
       d="m 15.696657,17.872529 a 6,6 0 1 0 0,-11.9999999 6,6 0 0 0 0,11.9999999 m 6,-6 h -6 m -3,-5.1969999 3,5.1969999 m 0,0 -3,5.197"
       id="path1-5"
       style="stroke:#666666" /><path
       stroke-dasharray="1, 3"
       d="m 15.696657,18.872529 a 7,7 0 1 0 0,-13.9999999 7,7 0 0 0 0,13.9999999"
       id="path2-5"
       style="stroke:#666666" /><path
       d="m 15.696657,21.872529 c 5.523,0 10,-4.477 10,-10 0,-5.5229999 -4.477,-9.9999999 -10,-9.9999999 -5.523,0 -9.9999999,4.477 -9.9999999,9.9999999 0,5.523 4.4769999,10 9.9999999,10"
       id="path3-1"
       style="stroke:#2a2aff" /><path
       d="m 15.696657,14.872529 a 3,3 0 1 0 0,-5.9999999 3,3 0 0 0 0,5.9999999"
       id="path4"
       style="stroke:#666666" /></g></svg>
